<svg xmlns="http://www.w3.org/2000/svg" xmlns:xlink="http://www.w3.org/1999/xlink" width="596" zoomAndPan="magnify" viewBox="0 0 446.88 446.999989" height="596" preserveAspectRatio="xMidYMid meet" version="1.0"><defs><clipPath id="b3bacddcc5"><path d="M 0 0.0585938 L 446.761719 0.0585938 L 446.761719 446.9375 L 0 446.9375 Z M 0 0.0585938 " clip-rule="nonzero"/></clipPath><clipPath id="c808ded7f9"><path d="M 0 0.0585938 L 446.761719 0.0585938 L 446.761719 446.9375 L 0 446.9375 Z M 0 0.0585938 " clip-rule="nonzero"/></clipPath></defs><g clip-path="url(#b3bacddcc5)"><path fill="#f8fbf8" d="M 223.375 0.0585938 C 100.007812 0.0585938 0 100.070312 0 223.4375 C 0 346.800781 100.007812 446.8125 223.375 446.8125 C 346.742188 446.8125 446.75 346.800781 446.75 223.4375 C 446.75 100.070312 346.742188 0.0585938 223.375 0.0585938 Z M 223.375 429.890625 C 109.351562 429.890625 16.917969 337.457031 16.917969 223.4375 C 16.917969 109.414062 109.351562 16.980469 223.375 16.980469 C 337.398438 16.980469 429.832031 109.414062 429.832031 223.4375 C 429.832031 337.457031 337.398438 429.890625 223.375 429.890625 Z M 223.375 429.890625 " fill-opacity="1" fill-rule="nonzero"/></g><path fill="#f8fbf8" d="M 197.160156 332.929688 C 191.554688 333.464844 187.082031 334.082031 182.585938 334.292969 C 157.101562 335.5 138.230469 325.449219 126.789062 302.019531 C 123.144531 294.558594 118.476562 287.515625 113.617188 280.757812 C 110.699219 276.695312 106.613281 273.433594 102.835938 270.054688 L 102.789062 270.011719 C 100.457031 267.957031 101.484375 264.113281 104.554688 263.597656 C 108.15625 262.992188 111.511719 263.644531 114.78125 264.476562 C 125.03125 267.085938 131.609375 274.351562 136.851562 283.039062 C 148.703125 302.691406 169.113281 310.886719 191.1875 305.03125 C 194.933594 304.039062 196.585938 302.425781 197.402344 298.339844 C 198.351562 293.574219 199.644531 288.875 201.035156 284.085938 C 201.242188 283.378906 201.371094 282.660156 201.429688 281.929688 C 201.488281 281.195312 201.472656 280.464844 201.382812 279.738281 C 201.292969 279.007812 201.128906 278.296875 200.894531 277.597656 C 200.660156 276.902344 200.355469 276.238281 199.988281 275.605469 C 199.617188 274.96875 199.1875 274.378906 198.695312 273.832031 C 198.207031 273.285156 197.664062 272.792969 197.074219 272.355469 C 196.484375 271.917969 195.855469 271.546875 195.191406 271.238281 C 194.523438 270.929688 193.832031 270.6875 193.117188 270.519531 L 192.996094 270.492188 C 170.09375 265.011719 150.308594 254.808594 137.5625 233.878906 C 130.746094 222.6875 127.371094 210.363281 127.546875 197.519531 C 127.742188 182.945312 129.03125 168.34375 130.707031 153.855469 C 131.882812 143.652344 136.609375 134.617188 143.945312 127.28125 C 146.503906 124.722656 146.71875 122.582031 145.484375 119.269531 C 140.433594 105.714844 141.3125 92.128906 145.792969 78.542969 C 147.058594 74.710938 148.855469 74.160156 152.523438 75.316406 C 163.871094 78.886719 172.335938 86.269531 179.777344 95.113281 L 179.851562 95.203125 C 180.316406 95.761719 180.820312 96.285156 181.363281 96.765625 C 181.90625 97.25 182.480469 97.691406 183.089844 98.089844 C 183.699219 98.484375 184.332031 98.835938 184.992188 99.140625 C 185.652344 99.441406 186.332031 99.695312 187.03125 99.898438 C 187.726562 100.097656 188.4375 100.246094 189.15625 100.34375 C 189.875 100.4375 190.601562 100.480469 191.328125 100.46875 C 192.050781 100.457031 192.773438 100.390625 193.492188 100.273438 C 194.207031 100.152344 194.910156 99.980469 195.601562 99.757812 C 219.152344 92.035156 254.878906 91.929688 277.085938 99.574219 C 277.78125 99.808594 278.488281 99.992188 279.210938 100.121094 C 279.929688 100.25 280.65625 100.324219 281.390625 100.34375 C 282.121094 100.363281 282.851562 100.328125 283.578125 100.238281 C 284.304688 100.148438 285.023438 100.003906 285.726562 99.804688 C 286.433594 99.605469 287.121094 99.355469 287.789062 99.054688 C 288.457031 98.753906 289.097656 98.402344 289.710938 98.003906 C 290.328125 97.605469 290.910156 97.164062 291.457031 96.679688 C 292.003906 96.191406 292.511719 95.667969 292.984375 95.105469 L 293.054688 95.019531 C 300.507812 86.179688 309.011719 78.851562 320.351562 75.269531 C 324.15625 74.066406 325.777344 74.984375 326.980469 78.683594 C 331.40625 92.273438 332.160156 105.777344 327.371094 119.476562 C 326.699219 121.40625 326.726562 124.757812 327.925781 125.976562 C 338.09375 136.289062 342.546875 149.09375 343.675781 162.964844 C 344.765625 176.367188 345.949219 190 344.703125 203.308594 C 341.464844 237.917969 320.421875 258.078125 288.421875 268.097656 C 285.679688 268.957031 282.898438 269.675781 280.058594 270.347656 C 279.320312 270.519531 278.609375 270.769531 277.921875 271.09375 C 277.238281 271.417969 276.589844 271.808594 275.988281 272.269531 C 275.382812 272.726562 274.832031 273.246094 274.339844 273.820312 C 273.84375 274.394531 273.414062 275.015625 273.046875 275.679688 C 272.683594 276.34375 272.390625 277.039062 272.171875 277.765625 C 271.953125 278.492188 271.808594 279.234375 271.746094 279.992188 C 271.683594 280.746094 271.699219 281.5 271.792969 282.253906 C 271.886719 283.007812 272.058594 283.742188 272.308594 284.460938 C 276.667969 297.089844 276.003906 310.585938 275.933594 323.996094 C 275.917969 327.078125 275.910156 330.160156 275.902344 333.246094 C 275.898438 334.519531 275.835938 335.792969 275.707031 337.058594 C 275.582031 338.324219 275.390625 339.582031 275.140625 340.832031 C 274.890625 342.078125 274.578125 343.3125 274.207031 344.53125 C 273.835938 345.75 273.40625 346.945312 272.914062 348.121094 C 272.425781 349.296875 271.878906 350.445312 271.277344 351.566406 C 270.675781 352.691406 270.019531 353.78125 269.3125 354.835938 C 268.601562 355.894531 267.84375 356.914062 267.035156 357.898438 C 266.226562 358.882812 265.371094 359.824219 264.46875 360.722656 C 263.570312 361.621094 262.625 362.476562 261.640625 363.28125 C 260.65625 364.089844 259.632812 364.847656 258.574219 365.554688 C 257.515625 366.257812 256.421875 366.914062 255.300781 367.511719 C 254.175781 368.109375 253.027344 368.65625 251.847656 369.140625 C 250.671875 369.628906 249.472656 370.054688 248.253906 370.425781 C 247.035156 370.792969 245.804688 371.101562 244.554688 371.351562 C 243.304688 371.597656 242.046875 371.785156 240.78125 371.910156 C 239.511719 372.035156 238.242188 372.09375 236.96875 372.09375 L 236.09375 372.09375 C 234.816406 372.09375 233.542969 372.03125 232.277344 371.90625 C 231.007812 371.78125 229.746094 371.597656 228.496094 371.347656 C 227.246094 371.097656 226.011719 370.789062 224.789062 370.417969 C 223.570312 370.050781 222.371094 369.621094 221.191406 369.132812 C 220.015625 368.644531 218.863281 368.097656 217.738281 367.5 C 216.613281 366.898438 215.519531 366.242188 214.460938 365.535156 C 213.402344 364.824219 212.378906 364.066406 211.390625 363.257812 C 210.40625 362.449219 209.460938 361.59375 208.5625 360.691406 C 207.660156 359.789062 206.804688 358.847656 205.996094 357.859375 C 205.1875 356.875 204.425781 355.851562 203.71875 354.792969 C 203.011719 353.730469 202.355469 352.640625 201.753906 351.515625 C 201.152344 350.390625 200.609375 349.238281 200.121094 348.058594 C 199.632812 346.882812 199.203125 345.683594 198.835938 344.464844 C 198.464844 343.242188 198.15625 342.007812 197.90625 340.757812 C 197.65625 339.507812 197.46875 338.246094 197.34375 336.976562 C 197.21875 335.707031 197.15625 334.4375 197.15625 333.160156 Z M 197.160156 332.929688 " fill-opacity="1" fill-rule="nonzero"/><g clip-path="url(#c808ded7f9)"><path fill="#f8fbf8" d="M 223.375 0.0585938 C 100.007812 0.0585938 0 100.070312 0 223.4375 C 0 346.800781 100.007812 446.8125 223.375 446.8125 C 346.742188 446.8125 446.75 346.800781 446.75 223.4375 C 446.75 100.070312 346.742188 0.0585938 223.375 0.0585938 Z M 223.375 429.890625 C 109.351562 429.890625 16.917969 337.457031 16.917969 223.4375 C 16.917969 109.414062 109.351562 16.980469 223.375 16.980469 C 337.398438 16.980469 429.832031 109.414062 429.832031 223.4375 C 429.832031 337.457031 337.398438 429.890625 223.375 429.890625 Z M 223.375 429.890625 " fill-opacity="1" fill-rule="nonzero"/></g><path fill="#f8fbf8" d="M 197.160156 332.929688 C 191.554688 333.464844 187.082031 334.082031 182.585938 334.292969 C 157.101562 335.5 138.230469 325.449219 126.789062 302.019531 C 123.144531 294.558594 118.476562 287.515625 113.617188 280.757812 C 110.699219 276.695312 106.613281 273.433594 102.835938 270.054688 L 102.789062 270.011719 C 100.457031 267.957031 101.484375 264.113281 104.554688 263.597656 C 108.15625 262.992188 111.511719 263.644531 114.78125 264.476562 C 125.03125 267.085938 131.609375 274.351562 136.851562 283.039062 C 148.703125 302.691406 169.113281 310.886719 191.1875 305.03125 C 194.933594 304.039062 196.585938 302.425781 197.402344 298.339844 C 198.351562 293.574219 199.644531 288.875 201.035156 284.085938 C 201.242188 283.378906 201.371094 282.660156 201.429688 281.929688 C 201.488281 281.195312 201.472656 280.464844 201.382812 279.738281 C 201.292969 279.007812 201.128906 278.296875 200.894531 277.597656 C 200.660156 276.902344 200.355469 276.238281 199.988281 275.605469 C 199.617188 274.96875 199.1875 274.378906 198.695312 273.832031 C 198.207031 273.285156 197.664062 272.792969 197.074219 272.355469 C 196.484375 271.917969 195.855469 271.546875 195.191406 271.238281 C 194.523438 270.929688 193.832031 270.6875 193.117188 270.519531 L 192.996094 270.492188 C 170.09375 265.011719 150.308594 254.808594 137.5625 233.878906 C 130.746094 222.6875 127.371094 210.363281 127.546875 197.519531 C 127.742188 182.945312 129.03125 168.34375 130.707031 153.855469 C 131.882812 143.652344 136.609375 134.617188 143.945312 127.28125 C 146.503906 124.722656 146.71875 122.582031 145.484375 119.269531 C 140.433594 105.714844 141.3125 92.128906 145.792969 78.542969 C 147.058594 74.710938 148.855469 74.160156 152.523438 75.316406 C 163.871094 78.886719 172.335938 86.269531 179.777344 95.113281 L 179.851562 95.203125 C 180.316406 95.761719 180.820312 96.285156 181.363281 96.765625 C 181.90625 97.25 182.480469 97.691406 183.089844 98.089844 C 183.699219 98.484375 184.332031 98.835938 184.992188 99.140625 C 185.652344 99.441406 186.332031 99.695312 187.03125 99.898438 C 187.726562 100.097656 188.4375 100.246094 189.15625 100.34375 C 189.875 100.4375 190.601562 100.480469 191.328125 100.46875 C 192.050781 100.457031 192.773438 100.390625 193.492188 100.273438 C 194.207031 100.152344 194.910156 99.980469 195.601562 99.757812 C 219.152344 92.035156 254.878906 91.929688 277.085938 99.574219 C 277.78125 99.808594 278.488281 99.992188 279.210938 100.121094 C 279.929688 100.25 280.65625 100.324219 281.390625 100.34375 C 282.121094 100.363281 282.851562 100.328125 283.578125 100.238281 C 284.304688 100.148438 285.023438 100.003906 285.726562 99.804688 C 286.433594 99.605469 287.121094 99.355469 287.789062 99.054688 C 288.457031 98.753906 289.097656 98.402344 289.710938 98.003906 C 290.328125 97.605469 290.910156 97.164062 291.457031 96.679688 C 292.003906 96.191406 292.511719 95.667969 292.984375 95.105469 L 293.054688 95.019531 C 300.507812 86.179688 309.011719 78.851562 320.351562 75.269531 C 324.15625 74.066406 325.777344 74.984375 326.980469 78.683594 C 331.40625 92.273438 332.160156 105.777344 327.371094 119.476562 C 326.699219 121.40625 326.726562 124.757812 327.925781 125.976562 C 338.09375 136.289062 342.546875 149.09375 343.675781 162.964844 C 344.765625 176.367188 345.949219 190 344.703125 203.308594 C 341.464844 237.917969 320.421875 258.078125 288.421875 268.097656 C 285.679688 268.957031 282.898438 269.675781 280.058594 270.347656 C 279.320312 270.519531 278.609375 270.769531 277.921875 271.09375 C 277.238281 271.417969 276.589844 271.808594 275.988281 272.269531 C 275.382812 272.726562 274.832031 273.246094 274.339844 273.820312 C 273.84375 274.394531 273.414062 275.015625 273.046875 275.679688 C 272.683594 276.34375 272.390625 277.039062 272.171875 277.765625 C 271.953125 278.492188 271.808594 279.234375 271.746094 279.992188 C 271.683594 280.746094 271.699219 281.5 271.792969 282.253906 C 271.886719 283.007812 272.058594 283.742188 272.308594 284.460938 C 276.667969 297.089844 276.003906 310.585938 275.933594 323.996094 C 275.917969 327.078125 275.910156 330.160156 275.902344 333.246094 C 275.898438 334.519531 275.835938 335.792969 275.707031 337.058594 C 275.582031 338.324219 275.390625 339.582031 275.140625 340.832031 C 274.890625 342.078125 274.578125 343.3125 274.207031 344.53125 C 273.835938 345.75 273.40625 346.945312 272.914062 348.121094 C 272.425781 349.296875 271.878906 350.445312 271.277344 351.566406 C 270.675781 352.691406 270.019531 353.78125 269.3125 354.835938 C 268.601562 355.894531 267.84375 356.914062 267.035156 357.898438 C 266.226562 358.882812 265.371094 359.824219 264.46875 360.722656 C 263.570312 361.621094 262.625 362.476562 261.640625 363.28125 C 260.65625 364.089844 259.632812 364.847656 258.574219 365.554688 C 257.515625 366.257812 256.421875 366.914062 255.300781 367.511719 C 254.175781 368.109375 253.027344 368.65625 251.847656 369.140625 C 250.671875 369.628906 249.472656 370.054688 248.253906 370.425781 C 247.035156 370.792969 245.804688 371.101562 244.554688 371.351562 C 243.304688 371.597656 242.046875 371.785156 240.78125 371.910156 C 239.511719 372.035156 238.242188 372.09375 236.96875 372.09375 L 236.09375 372.09375 C 234.816406 372.09375 233.542969 372.03125 232.277344 371.90625 C 231.007812 371.78125 229.746094 371.597656 228.496094 371.347656 C 227.246094 371.097656 226.011719 370.789062 224.789062 370.417969 C 223.570312 370.050781 222.371094 369.621094 221.191406 369.132812 C 220.015625 368.644531 218.863281 368.097656 217.738281 367.5 C 216.613281 366.898438 215.519531 366.242188 214.460938 365.535156 C 213.402344 364.824219 212.378906 364.066406 211.390625 363.257812 C 210.40625 362.449219 209.460938 361.59375 208.5625 360.691406 C 207.660156 359.789062 206.804688 358.847656 205.996094 357.859375 C 205.1875 356.875 204.425781 355.851562 203.71875 354.792969 C 203.011719 353.730469 202.355469 352.640625 201.753906 351.515625 C 201.152344 350.390625 200.609375 349.238281 200.121094 348.058594 C 199.632812 346.882812 199.203125 345.683594 198.835938 344.464844 C 198.464844 343.242188 198.15625 342.007812 197.90625 340.757812 C 197.65625 339.507812 197.46875 338.246094 197.34375 336.976562 C 197.21875 335.707031 197.15625 334.4375 197.15625 333.160156 Z M 197.160156 332.929688 " fill-opacity="1" fill-rule="nonzero"/></svg>