<svg xmlns="http://www.w3.org/2000/svg" xmlns:xlink="http://www.w3.org/1999/xlink" width="188" zoomAndPan="magnify" viewBox="0 0 141 75.749997" height="101" preserveAspectRatio="xMidYMid meet" version="1.0"><defs><clipPath id="bac587ce6b"><path d="M 0.257812 0.0507812 L 140.742188 0.0507812 L 140.742188 74.800781 L 0.257812 74.800781 Z M 0.257812 0.0507812 " clip-rule="nonzero"/></clipPath></defs><g clip-path="url(#bac587ce6b)"><path fill="#ffffff" d="M 0.257812 69.386719 C 0.257812 70.824219 0.828125 72.199219 1.84375 73.214844 C 2.859375 74.230469 4.238281 74.800781 5.675781 74.800781 C 7.113281 74.800781 8.492188 74.230469 9.507812 73.214844 C 10.523438 72.199219 11.09375 70.824219 11.09375 69.386719 C 11.09375 68.675781 10.953125 67.972656 10.683594 67.316406 C 10.410156 66.660156 10.011719 66.0625 9.507812 65.558594 C 9.003906 65.058594 8.40625 64.660156 7.75 64.386719 C 7.09375 64.113281 6.386719 63.972656 5.675781 63.972656 C 4.964844 63.972656 4.257812 64.113281 3.601562 64.386719 C 2.945312 64.660156 2.347656 65.058594 1.84375 65.558594 C 1.339844 66.0625 0.941406 66.660156 0.667969 67.316406 C 0.394531 67.972656 0.257812 68.675781 0.257812 69.386719 Z M 0.257812 37.425781 C 0.257812 38.136719 0.394531 38.839844 0.667969 39.496094 C 0.941406 40.15625 1.339844 40.75 1.84375 41.253906 C 2.347656 41.757812 2.945312 42.15625 3.601562 42.425781 C 4.257812 42.699219 4.964844 42.839844 5.675781 42.839844 C 6.386719 42.839844 7.09375 42.699219 7.75 42.425781 C 8.40625 42.15625 9.003906 41.757812 9.507812 41.253906 C 10.011719 40.75 10.410156 40.15625 10.683594 39.496094 C 10.953125 38.839844 11.09375 38.136719 11.09375 37.425781 C 11.09375 36.714844 10.953125 36.011719 10.683594 35.355469 C 10.410156 34.695312 10.011719 34.101562 9.507812 33.597656 C 9.003906 33.09375 8.40625 32.695312 7.75 32.425781 C 7.09375 32.152344 6.386719 32.011719 5.675781 32.011719 C 4.964844 32.011719 4.257812 32.152344 3.601562 32.425781 C 2.945312 32.695312 2.347656 33.09375 1.84375 33.597656 C 1.339844 34.101562 0.941406 34.695312 0.667969 35.355469 C 0.394531 36.011719 0.257812 36.714844 0.257812 37.425781 Z M 0.257812 5.464844 C 0.257812 6.898438 0.828125 8.277344 1.84375 9.292969 C 2.859375 10.308594 4.238281 10.878906 5.675781 10.878906 C 7.113281 10.878906 8.492188 10.308594 9.507812 9.292969 C 10.523438 8.277344 11.09375 6.898438 11.09375 5.464844 C 11.09375 4.753906 10.953125 4.046875 10.683594 3.390625 C 10.410156 2.734375 10.011719 2.136719 9.507812 1.636719 C 9.003906 1.132812 8.40625 0.734375 7.75 0.460938 C 7.09375 0.191406 6.386719 0.0507812 5.675781 0.0507812 C 4.964844 0.0507812 4.257812 0.191406 3.601562 0.460938 C 2.945312 0.734375 2.347656 1.132812 1.84375 1.636719 C 1.339844 2.136719 0.941406 2.734375 0.667969 3.390625 C 0.394531 4.046875 0.257812 4.753906 0.257812 5.464844 Z M 32.667969 69.386719 C 32.667969 70.824219 33.238281 72.199219 34.253906 73.214844 C 35.269531 74.230469 36.648438 74.800781 38.085938 74.800781 C 39.523438 74.800781 40.902344 74.230469 41.917969 73.214844 C 42.9375 72.199219 43.507812 70.824219 43.507812 69.386719 C 43.507812 67.953125 42.9375 66.574219 41.917969 65.558594 C 40.902344 64.542969 39.523438 63.972656 38.085938 63.972656 C 37.375 63.972656 36.671875 64.113281 36.011719 64.386719 C 35.355469 64.660156 34.757812 65.058594 34.253906 65.558594 C 33.75 66.0625 33.351562 66.660156 33.078125 67.316406 C 32.808594 67.972656 32.667969 68.675781 32.667969 69.386719 Z M 32.667969 37.425781 C 32.667969 38.136719 32.808594 38.839844 33.078125 39.496094 C 33.351562 40.15625 33.75 40.75 34.253906 41.253906 C 34.757812 41.757812 35.355469 42.15625 36.011719 42.425781 C 36.671875 42.699219 37.375 42.839844 38.085938 42.839844 C 39.523438 42.839844 40.902344 42.269531 41.917969 41.253906 C 42.9375 40.238281 43.507812 38.863281 43.507812 37.425781 C 43.507812 35.988281 42.9375 34.613281 41.917969 33.597656 C 40.902344 32.582031 39.523438 32.011719 38.085938 32.011719 C 37.375 32.011719 36.671875 32.152344 36.011719 32.425781 C 35.355469 32.695312 34.757812 33.09375 34.253906 33.597656 C 33.75 34.101562 33.351562 34.695312 33.078125 35.355469 C 32.808594 36.011719 32.667969 36.714844 32.667969 37.425781 Z M 32.667969 5.464844 C 32.667969 6.898438 33.238281 8.277344 34.253906 9.292969 C 35.269531 10.308594 36.648438 10.878906 38.085938 10.878906 C 39.523438 10.878906 40.902344 10.308594 41.917969 9.292969 C 42.9375 8.277344 43.507812 6.898438 43.507812 5.464844 C 43.507812 4.027344 42.9375 2.652344 41.917969 1.636719 C 40.902344 0.621094 39.523438 0.0507812 38.085938 0.0507812 C 37.375 0.0507812 36.671875 0.191406 36.011719 0.460938 C 35.355469 0.734375 34.757812 1.132812 34.253906 1.636719 C 33.75 2.136719 33.351562 2.734375 33.078125 3.390625 C 32.808594 4.046875 32.667969 4.753906 32.667969 5.464844 Z M 65.078125 69.386719 C 65.078125 70.824219 65.648438 72.199219 66.667969 73.214844 C 67.683594 74.230469 69.0625 74.800781 70.5 74.800781 C 71.9375 74.800781 73.316406 74.230469 74.332031 73.214844 C 75.347656 72.199219 75.917969 70.824219 75.917969 69.386719 C 75.917969 67.953125 75.347656 66.574219 74.332031 65.558594 C 73.316406 64.542969 71.9375 63.972656 70.5 63.972656 C 69.785156 63.972656 69.082031 64.113281 68.425781 64.386719 C 67.765625 64.660156 67.167969 65.058594 66.667969 65.558594 C 66.164062 66.0625 65.765625 66.660156 65.492188 67.316406 C 65.21875 67.972656 65.078125 68.675781 65.078125 69.386719 Z M 65.078125 37.425781 C 65.078125 38.136719 65.21875 38.839844 65.492188 39.496094 C 65.765625 40.15625 66.164062 40.75 66.667969 41.253906 C 67.167969 41.757812 67.765625 42.15625 68.425781 42.425781 C 69.082031 42.699219 69.785156 42.839844 70.5 42.839844 C 71.9375 42.839844 73.316406 42.269531 74.332031 41.253906 C 75.347656 40.238281 75.917969 38.863281 75.917969 37.425781 C 75.917969 35.988281 75.347656 34.613281 74.332031 33.597656 C 73.316406 32.582031 71.9375 32.011719 70.5 32.011719 C 69.785156 32.011719 69.082031 32.152344 68.425781 32.425781 C 67.765625 32.695312 67.167969 33.09375 66.667969 33.597656 C 66.164062 34.101562 65.765625 34.695312 65.492188 35.355469 C 65.21875 36.011719 65.078125 36.714844 65.078125 37.425781 Z M 65.078125 5.464844 C 65.078125 6.898438 65.648438 8.277344 66.667969 9.292969 C 67.683594 10.308594 69.0625 10.878906 70.5 10.878906 C 71.9375 10.878906 73.316406 10.308594 74.332031 9.292969 C 75.347656 8.277344 75.917969 6.898438 75.917969 5.464844 C 75.917969 4.027344 75.347656 2.652344 74.332031 1.636719 C 73.316406 0.621094 71.9375 0.0507812 70.5 0.0507812 C 69.785156 0.0507812 69.082031 0.191406 68.425781 0.460938 C 67.765625 0.734375 67.167969 1.132812 66.667969 1.636719 C 66.164062 2.136719 65.765625 2.734375 65.492188 3.390625 C 65.21875 4.046875 65.078125 4.753906 65.078125 5.464844 Z M 97.492188 69.386719 C 97.492188 70.824219 98.0625 72.199219 99.078125 73.214844 C 100.09375 74.230469 101.472656 74.800781 102.910156 74.800781 C 104.347656 74.800781 105.726562 74.230469 106.742188 73.214844 C 107.757812 72.199219 108.328125 70.824219 108.328125 69.386719 C 108.328125 68.675781 108.191406 67.972656 107.917969 67.316406 C 107.644531 66.660156 107.246094 66.0625 106.742188 65.558594 C 106.238281 65.058594 105.640625 64.660156 104.984375 64.386719 C 104.328125 64.113281 103.621094 63.972656 102.910156 63.972656 C 102.199219 63.972656 101.492188 64.113281 100.835938 64.386719 C 100.179688 64.660156 99.582031 65.058594 99.078125 65.558594 C 98.574219 66.0625 98.175781 66.660156 97.902344 67.316406 C 97.628906 67.972656 97.492188 68.675781 97.492188 69.386719 Z M 97.492188 37.425781 C 97.492188 38.136719 97.628906 38.839844 97.902344 39.496094 C 98.175781 40.15625 98.574219 40.75 99.078125 41.253906 C 99.582031 41.757812 100.179688 42.15625 100.835938 42.425781 C 101.492188 42.699219 102.199219 42.839844 102.910156 42.839844 C 103.621094 42.839844 104.328125 42.699219 104.984375 42.425781 C 105.640625 42.15625 106.238281 41.757812 106.742188 41.253906 C 107.246094 40.75 107.644531 40.15625 107.917969 39.496094 C 108.191406 38.839844 108.328125 38.136719 108.328125 37.425781 C 108.328125 36.714844 108.191406 36.011719 107.917969 35.355469 C 107.644531 34.695312 107.246094 34.101562 106.742188 33.597656 C 106.238281 33.09375 105.640625 32.695312 104.984375 32.425781 C 104.328125 32.152344 103.621094 32.011719 102.910156 32.011719 C 102.199219 32.011719 101.492188 32.152344 100.835938 32.425781 C 100.179688 32.695312 99.582031 33.09375 99.078125 33.597656 C 98.574219 34.101562 98.175781 34.695312 97.902344 35.355469 C 97.628906 36.011719 97.492188 36.714844 97.492188 37.425781 Z M 97.492188 5.464844 C 97.492188 6.898438 98.0625 8.277344 99.078125 9.292969 C 100.09375 10.308594 101.472656 10.878906 102.910156 10.878906 C 104.347656 10.878906 105.726562 10.308594 106.742188 9.292969 C 107.757812 8.277344 108.328125 6.898438 108.328125 5.464844 C 108.328125 4.753906 108.191406 4.046875 107.917969 3.390625 C 107.644531 2.734375 107.246094 2.136719 106.742188 1.636719 C 106.238281 1.132812 105.640625 0.734375 104.984375 0.460938 C 104.328125 0.191406 103.621094 0.0507812 102.910156 0.0507812 C 102.199219 0.0507812 101.492188 0.191406 100.835938 0.460938 C 100.179688 0.734375 99.582031 1.132812 99.078125 1.636719 C 98.574219 2.136719 98.175781 2.734375 97.902344 3.390625 C 97.628906 4.046875 97.492188 4.753906 97.492188 5.464844 Z M 129.902344 69.386719 C 129.902344 70.824219 130.472656 72.199219 131.488281 73.214844 C 132.503906 74.230469 133.882812 74.800781 135.320312 74.800781 C 136.757812 74.800781 138.136719 74.230469 139.152344 73.214844 C 140.167969 72.199219 140.742188 70.824219 140.742188 69.386719 C 140.742188 68.675781 140.601562 67.972656 140.328125 67.316406 C 140.054688 66.660156 139.65625 66.0625 139.152344 65.558594 C 138.652344 65.058594 138.054688 64.660156 137.394531 64.386719 C 136.738281 64.113281 136.035156 63.972656 135.320312 63.972656 C 133.882812 63.972656 132.503906 64.542969 131.488281 65.558594 C 130.472656 66.574219 129.902344 67.953125 129.902344 69.386719 Z M 129.902344 37.425781 C 129.902344 38.863281 130.472656 40.238281 131.488281 41.253906 C 132.503906 42.269531 133.882812 42.839844 135.320312 42.839844 C 136.035156 42.839844 136.738281 42.699219 137.394531 42.425781 C 138.054688 42.15625 138.652344 41.757812 139.152344 41.253906 C 139.65625 40.75 140.054688 40.15625 140.328125 39.496094 C 140.601562 38.839844 140.742188 38.136719 140.742188 37.425781 C 140.742188 36.714844 140.601562 36.011719 140.328125 35.355469 C 140.054688 34.695312 139.65625 34.101562 139.152344 33.597656 C 138.652344 33.09375 138.054688 32.695312 137.394531 32.425781 C 136.738281 32.152344 136.035156 32.011719 135.320312 32.011719 C 133.882812 32.011719 132.503906 32.582031 131.488281 33.597656 C 130.472656 34.613281 129.902344 35.988281 129.902344 37.425781 Z M 129.902344 5.464844 C 129.902344 6.898438 130.472656 8.277344 131.488281 9.292969 C 132.503906 10.308594 133.882812 10.878906 135.320312 10.878906 C 136.757812 10.878906 138.136719 10.308594 139.152344 9.292969 C 140.167969 8.277344 140.742188 6.898438 140.742188 5.464844 C 140.742188 4.753906 140.601562 4.046875 140.328125 3.390625 C 140.054688 2.734375 139.65625 2.136719 139.152344 1.636719 C 138.652344 1.132812 138.054688 0.734375 137.394531 0.460938 C 136.738281 0.191406 136.035156 0.0507812 135.320312 0.0507812 C 133.882812 0.0507812 132.503906 0.621094 131.488281 1.636719 C 130.472656 2.652344 129.902344 4.027344 129.902344 5.464844 Z M 129.902344 5.464844 " fill-opacity="1" fill-rule="nonzero"/><path fill="#ffffff" d="M 0.257812 69.386719 C 0.257812 70.824219 0.828125 72.199219 1.84375 73.214844 C 2.859375 74.230469 4.238281 74.800781 5.675781 74.800781 C 7.113281 74.800781 8.492188 74.230469 9.507812 73.214844 C 10.523438 72.199219 11.09375 70.824219 11.09375 69.386719 C 11.09375 68.675781 10.953125 67.972656 10.683594 67.316406 C 10.410156 66.660156 10.011719 66.0625 9.507812 65.558594 C 9.003906 65.058594 8.40625 64.660156 7.75 64.386719 C 7.09375 64.113281 6.386719 63.972656 5.675781 63.972656 C 4.964844 63.972656 4.257812 64.113281 3.601562 64.386719 C 2.945312 64.660156 2.347656 65.058594 1.84375 65.558594 C 1.339844 66.0625 0.941406 66.660156 0.667969 67.316406 C 0.394531 67.972656 0.257812 68.675781 0.257812 69.386719 Z M 0.257812 37.425781 C 0.257812 38.136719 0.394531 38.839844 0.667969 39.496094 C 0.941406 40.15625 1.339844 40.75 1.84375 41.253906 C 2.347656 41.757812 2.945312 42.15625 3.601562 42.425781 C 4.257812 42.699219 4.964844 42.839844 5.675781 42.839844 C 6.386719 42.839844 7.09375 42.699219 7.75 42.425781 C 8.40625 42.15625 9.003906 41.757812 9.507812 41.253906 C 10.011719 40.75 10.410156 40.15625 10.683594 39.496094 C 10.953125 38.839844 11.09375 38.136719 11.09375 37.425781 C 11.09375 36.714844 10.953125 36.011719 10.683594 35.355469 C 10.410156 34.695312 10.011719 34.101562 9.507812 33.597656 C 9.003906 33.09375 8.40625 32.695312 7.75 32.425781 C 7.09375 32.152344 6.386719 32.011719 5.675781 32.011719 C 4.964844 32.011719 4.257812 32.152344 3.601562 32.425781 C 2.945312 32.695312 2.347656 33.09375 1.84375 33.597656 C 1.339844 34.101562 0.941406 34.695312 0.667969 35.355469 C 0.394531 36.011719 0.257812 36.714844 0.257812 37.425781 Z M 0.257812 5.464844 C 0.257812 6.898438 0.828125 8.277344 1.84375 9.292969 C 2.859375 10.308594 4.238281 10.878906 5.675781 10.878906 C 7.113281 10.878906 8.492188 10.308594 9.507812 9.292969 C 10.523438 8.277344 11.09375 6.898438 11.09375 5.464844 C 11.09375 4.753906 10.953125 4.046875 10.683594 3.390625 C 10.410156 2.734375 10.011719 2.136719 9.507812 1.636719 C 9.003906 1.132812 8.40625 0.734375 7.75 0.460938 C 7.09375 0.191406 6.386719 0.0507812 5.675781 0.0507812 C 4.964844 0.0507812 4.257812 0.191406 3.601562 0.460938 C 2.945312 0.734375 2.347656 1.132812 1.84375 1.636719 C 1.339844 2.136719 0.941406 2.734375 0.667969 3.390625 C 0.394531 4.046875 0.257812 4.753906 0.257812 5.464844 Z M 32.667969 69.386719 C 32.667969 70.824219 33.238281 72.199219 34.253906 73.214844 C 35.269531 74.230469 36.648438 74.800781 38.085938 74.800781 C 39.523438 74.800781 40.902344 74.230469 41.917969 73.214844 C 42.9375 72.199219 43.507812 70.824219 43.507812 69.386719 C 43.507812 67.953125 42.9375 66.574219 41.917969 65.558594 C 40.902344 64.542969 39.523438 63.972656 38.085938 63.972656 C 37.375 63.972656 36.671875 64.113281 36.011719 64.386719 C 35.355469 64.660156 34.757812 65.058594 34.253906 65.558594 C 33.75 66.0625 33.351562 66.660156 33.078125 67.316406 C 32.808594 67.972656 32.667969 68.675781 32.667969 69.386719 Z M 32.667969 37.425781 C 32.667969 38.136719 32.808594 38.839844 33.078125 39.496094 C 33.351562 40.15625 33.75 40.75 34.253906 41.253906 C 34.757812 41.757812 35.355469 42.15625 36.011719 42.425781 C 36.671875 42.699219 37.375 42.839844 38.085938 42.839844 C 39.523438 42.839844 40.902344 42.269531 41.917969 41.253906 C 42.9375 40.238281 43.507812 38.863281 43.507812 37.425781 C 43.507812 35.988281 42.9375 34.613281 41.917969 33.597656 C 40.902344 32.582031 39.523438 32.011719 38.085938 32.011719 C 37.375 32.011719 36.671875 32.152344 36.011719 32.425781 C 35.355469 32.695312 34.757812 33.09375 34.253906 33.597656 C 33.75 34.101562 33.351562 34.695312 33.078125 35.355469 C 32.808594 36.011719 32.667969 36.714844 32.667969 37.425781 Z M 32.667969 5.464844 C 32.667969 6.898438 33.238281 8.277344 34.253906 9.292969 C 35.269531 10.308594 36.648438 10.878906 38.085938 10.878906 C 39.523438 10.878906 40.902344 10.308594 41.917969 9.292969 C 42.9375 8.277344 43.507812 6.898438 43.507812 5.464844 C 43.507812 4.027344 42.9375 2.652344 41.917969 1.636719 C 40.902344 0.621094 39.523438 0.0507812 38.085938 0.0507812 C 37.375 0.0507812 36.671875 0.191406 36.011719 0.460938 C 35.355469 0.734375 34.757812 1.132812 34.253906 1.636719 C 33.75 2.136719 33.351562 2.734375 33.078125 3.390625 C 32.808594 4.046875 32.667969 4.753906 32.667969 5.464844 Z M 65.078125 69.386719 C 65.078125 70.824219 65.648438 72.199219 66.667969 73.214844 C 67.683594 74.230469 69.0625 74.800781 70.5 74.800781 C 71.9375 74.800781 73.316406 74.230469 74.332031 73.214844 C 75.347656 72.199219 75.917969 70.824219 75.917969 69.386719 C 75.917969 67.953125 75.347656 66.574219 74.332031 65.558594 C 73.316406 64.542969 71.9375 63.972656 70.5 63.972656 C 69.785156 63.972656 69.082031 64.113281 68.425781 64.386719 C 67.765625 64.660156 67.167969 65.058594 66.667969 65.558594 C 66.164062 66.0625 65.765625 66.660156 65.492188 67.316406 C 65.21875 67.972656 65.078125 68.675781 65.078125 69.386719 Z M 65.078125 37.425781 C 65.078125 38.136719 65.21875 38.839844 65.492188 39.496094 C 65.765625 40.15625 66.164062 40.75 66.667969 41.253906 C 67.167969 41.757812 67.765625 42.15625 68.425781 42.425781 C 69.082031 42.699219 69.785156 42.839844 70.5 42.839844 C 71.9375 42.839844 73.316406 42.269531 74.332031 41.253906 C 75.347656 40.238281 75.917969 38.863281 75.917969 37.425781 C 75.917969 35.988281 75.347656 34.613281 74.332031 33.597656 C 73.316406 32.582031 71.9375 32.011719 70.5 32.011719 C 69.785156 32.011719 69.082031 32.152344 68.425781 32.425781 C 67.765625 32.695312 67.167969 33.09375 66.667969 33.597656 C 66.164062 34.101562 65.765625 34.695312 65.492188 35.355469 C 65.21875 36.011719 65.078125 36.714844 65.078125 37.425781 Z M 65.078125 5.464844 C 65.078125 6.898438 65.648438 8.277344 66.667969 9.292969 C 67.683594 10.308594 69.0625 10.878906 70.5 10.878906 C 71.9375 10.878906 73.316406 10.308594 74.332031 9.292969 C 75.347656 8.277344 75.917969 6.898438 75.917969 5.464844 C 75.917969 4.027344 75.347656 2.652344 74.332031 1.636719 C 73.316406 0.621094 71.9375 0.0507812 70.5 0.0507812 C 69.785156 0.0507812 69.082031 0.191406 68.425781 0.460938 C 67.765625 0.734375 67.167969 1.132812 66.667969 1.636719 C 66.164062 2.136719 65.765625 2.734375 65.492188 3.390625 C 65.21875 4.046875 65.078125 4.753906 65.078125 5.464844 Z M 97.492188 69.386719 C 97.492188 70.824219 98.0625 72.199219 99.078125 73.214844 C 100.09375 74.230469 101.472656 74.800781 102.910156 74.800781 C 104.347656 74.800781 105.726562 74.230469 106.742188 73.214844 C 107.757812 72.199219 108.328125 70.824219 108.328125 69.386719 C 108.328125 68.675781 108.191406 67.972656 107.917969 67.316406 C 107.644531 66.660156 107.246094 66.0625 106.742188 65.558594 C 106.238281 65.058594 105.640625 64.660156 104.984375 64.386719 C 104.328125 64.113281 103.621094 63.972656 102.910156 63.972656 C 102.199219 63.972656 101.492188 64.113281 100.835938 64.386719 C 100.179688 64.660156 99.582031 65.058594 99.078125 65.558594 C 98.574219 66.0625 98.175781 66.660156 97.902344 67.316406 C 97.628906 67.972656 97.492188 68.675781 97.492188 69.386719 Z M 97.492188 37.425781 C 97.492188 38.136719 97.628906 38.839844 97.902344 39.496094 C 98.175781 40.15625 98.574219 40.75 99.078125 41.253906 C 99.582031 41.757812 100.179688 42.15625 100.835938 42.425781 C 101.492188 42.699219 102.199219 42.839844 102.910156 42.839844 C 103.621094 42.839844 104.328125 42.699219 104.984375 42.425781 C 105.640625 42.15625 106.238281 41.757812 106.742188 41.253906 C 107.246094 40.75 107.644531 40.15625 107.917969 39.496094 C 108.191406 38.839844 108.328125 38.136719 108.328125 37.425781 C 108.328125 36.714844 108.191406 36.011719 107.917969 35.355469 C 107.644531 34.695312 107.246094 34.101562 106.742188 33.597656 C 106.238281 33.09375 105.640625 32.695312 104.984375 32.425781 C 104.328125 32.152344 103.621094 32.011719 102.910156 32.011719 C 102.199219 32.011719 101.492188 32.152344 100.835938 32.425781 C 100.179688 32.695312 99.582031 33.09375 99.078125 33.597656 C 98.574219 34.101562 98.175781 34.695312 97.902344 35.355469 C 97.628906 36.011719 97.492188 36.714844 97.492188 37.425781 Z M 97.492188 5.464844 C 97.492188 6.898438 98.0625 8.277344 99.078125 9.292969 C 100.09375 10.308594 101.472656 10.878906 102.910156 10.878906 C 104.347656 10.878906 105.726562 10.308594 106.742188 9.292969 C 107.757812 8.277344 108.328125 6.898438 108.328125 5.464844 C 108.328125 4.753906 108.191406 4.046875 107.917969 3.390625 C 107.644531 2.734375 107.246094 2.136719 106.742188 1.636719 C 106.238281 1.132812 105.640625 0.734375 104.984375 0.460938 C 104.328125 0.191406 103.621094 0.0507812 102.910156 0.0507812 C 102.199219 0.0507812 101.492188 0.191406 100.835938 0.460938 C 100.179688 0.734375 99.582031 1.132812 99.078125 1.636719 C 98.574219 2.136719 98.175781 2.734375 97.902344 3.390625 C 97.628906 4.046875 97.492188 4.753906 97.492188 5.464844 Z M 129.902344 69.386719 C 129.902344 70.824219 130.472656 72.199219 131.488281 73.214844 C 132.503906 74.230469 133.882812 74.800781 135.320312 74.800781 C 136.757812 74.800781 138.136719 74.230469 139.152344 73.214844 C 140.167969 72.199219 140.742188 70.824219 140.742188 69.386719 C 140.742188 68.675781 140.601562 67.972656 140.328125 67.316406 C 140.054688 66.660156 139.65625 66.0625 139.152344 65.558594 C 138.652344 65.058594 138.054688 64.660156 137.394531 64.386719 C 136.738281 64.113281 136.035156 63.972656 135.320312 63.972656 C 133.882812 63.972656 132.503906 64.542969 131.488281 65.558594 C 130.472656 66.574219 129.902344 67.953125 129.902344 69.386719 Z M 129.902344 37.425781 C 129.902344 38.863281 130.472656 40.238281 131.488281 41.253906 C 132.503906 42.269531 133.882812 42.839844 135.320312 42.839844 C 136.035156 42.839844 136.738281 42.699219 137.394531 42.425781 C 138.054688 42.15625 138.652344 41.757812 139.152344 41.253906 C 139.65625 40.75 140.054688 40.15625 140.328125 39.496094 C 140.601562 38.839844 140.742188 38.136719 140.742188 37.425781 C 140.742188 36.714844 140.601562 36.011719 140.328125 35.355469 C 140.054688 34.695312 139.65625 34.101562 139.152344 33.597656 C 138.652344 33.09375 138.054688 32.695312 137.394531 32.425781 C 136.738281 32.152344 136.035156 32.011719 135.320312 32.011719 C 133.882812 32.011719 132.503906 32.582031 131.488281 33.597656 C 130.472656 34.613281 129.902344 35.988281 129.902344 37.425781 Z M 129.902344 5.464844 C 129.902344 6.898438 130.472656 8.277344 131.488281 9.292969 C 132.503906 10.308594 133.882812 10.878906 135.320312 10.878906 C 136.757812 10.878906 138.136719 10.308594 139.152344 9.292969 C 140.167969 8.277344 140.742188 6.898438 140.742188 5.464844 C 140.742188 4.753906 140.601562 4.046875 140.328125 3.390625 C 140.054688 2.734375 139.65625 2.136719 139.152344 1.636719 C 138.652344 1.132812 138.054688 0.734375 137.394531 0.460938 C 136.738281 0.191406 136.035156 0.0507812 135.320312 0.0507812 C 133.882812 0.0507812 132.503906 0.621094 131.488281 1.636719 C 130.472656 2.652344 129.902344 4.027344 129.902344 5.464844 Z M 129.902344 5.464844 " fill-opacity="1" fill-rule="nonzero"/></g></svg>