<svg xmlns="http://www.w3.org/2000/svg" xmlns:xlink="http://www.w3.org/1999/xlink" width="419" zoomAndPan="magnify" viewBox="0 0 314.25 332.249992" height="443" preserveAspectRatio="xMidYMid meet" version="1.0"><defs><clipPath id="16ca638478"><path d="M 0 0.0195312 L 313.1875 0.0195312 L 313.1875 330 L 0 330 Z M 0 0.0195312 " clip-rule="nonzero"/></clipPath><clipPath id="6efc04ca2a"><path d="M 156.59375 0.0195312 L 168.640625 127.105469 L 253.5625 31.339844 L 188.515625 141.558594 L 313.1875 113.851562 L 195.742188 164.445312 L 313.1875 215.640625 L 188.515625 187.933594 L 253.5625 298.152344 L 168.640625 201.785156 L 156.59375 329.472656 L 144.546875 201.785156 L 59.625 298.152344 L 124.671875 187.933594 L 0 215.640625 L 117.445312 164.445312 L 0 113.851562 L 124.671875 141.558594 L 59.625 31.339844 L 144.546875 127.105469 Z M 156.59375 0.0195312 " clip-rule="nonzero"/></clipPath><clipPath id="ce0d538bc8"><path d="M 0 0.0195312 L 313.1875 0.0195312 L 313.1875 329.476562 L 0 329.476562 Z M 0 0.0195312 " clip-rule="nonzero"/></clipPath><clipPath id="47d5d798a5"><path d="M 156.59375 0.0195312 L 168.640625 127.105469 L 253.5625 31.339844 L 188.515625 141.558594 L 313.1875 113.851562 L 195.742188 164.445312 L 313.1875 215.640625 L 188.515625 187.933594 L 253.5625 298.152344 L 168.640625 201.785156 L 156.59375 329.472656 L 144.546875 201.785156 L 59.625 298.152344 L 124.671875 187.933594 L 0 215.640625 L 117.445312 164.445312 L 0 113.851562 L 124.671875 141.558594 L 59.625 31.339844 L 144.546875 127.105469 Z M 156.59375 0.0195312 " clip-rule="nonzero"/></clipPath><clipPath id="9115d0abee"><rect x="0" width="314" y="0" height="330"/></clipPath><clipPath id="56dd73a871"><path d="M 0 0.0195312 L 313.1875 0.0195312 L 313.1875 329.476562 L 0 329.476562 Z M 0 0.0195312 " clip-rule="nonzero"/></clipPath><clipPath id="0837ce2024"><path d="M 156.59375 0.0195312 L 168.640625 127.105469 L 253.5625 31.339844 L 188.515625 141.558594 L 313.1875 113.851562 L 195.742188 164.445312 L 313.1875 215.640625 L 188.515625 187.933594 L 253.5625 298.152344 L 168.640625 201.785156 L 156.59375 329.472656 L 144.546875 201.785156 L 59.625 298.152344 L 124.671875 187.933594 L 0 215.640625 L 117.445312 164.445312 L 0 113.851562 L 124.671875 141.558594 L 59.625 31.339844 L 144.546875 127.105469 Z M 156.59375 0.0195312 " clip-rule="nonzero"/></clipPath><clipPath id="43151749ec"><rect x="0" width="314" y="0" height="330"/></clipPath></defs><g clip-path="url(#16ca638478)"><g clip-path="url(#6efc04ca2a)"><g transform="matrix(1, 0, 0, 1, 0, 0.000000000000034864)"><g clip-path="url(#9115d0abee)"><g clip-path="url(#ce0d538bc8)"><g clip-path="url(#47d5d798a5)"><path fill="#f8fbf8" d="M 0 0.0195312 L 313.1875 0.0195312 L 313.1875 331.5625 L 0 331.5625 Z M 0 0.0195312 " fill-opacity="1" fill-rule="nonzero"/></g></g></g></g><g transform="matrix(1, 0, 0, 1, 0, 0.000000000000034864)"><g clip-path="url(#43151749ec)"><g clip-path="url(#56dd73a871)"><g clip-path="url(#0837ce2024)"><path fill="#f8fbf8" d="M 0 0.0195312 L 313.1875 0.0195312 L 313.1875 331.5625 L 0 331.5625 Z M 0 0.0195312 " fill-opacity="1" fill-rule="nonzero"/></g></g></g></g></g></g></svg>