<svg xmlns="http://www.w3.org/2000/svg" xmlns:xlink="http://www.w3.org/1999/xlink" width="435" zoomAndPan="magnify" viewBox="0 0 326.25 278.250005" height="371" preserveAspectRatio="xMidYMid meet" version="1.0"><defs><clipPath id="9cff9a391f"><path d="M 0.0664062 0 L 275 0 L 275 275 L 0.0664062 275 Z M 0.0664062 0 " clip-rule="nonzero"/></clipPath><clipPath id="4d344b61f1"><path d="M 287 239 L 324.691406 239 L 324.691406 276.753906 L 287 276.753906 Z M 287 239 " clip-rule="nonzero"/></clipPath><clipPath id="a4081beeff"><path d="M 0.0664062 0 L 275 0 L 275 275 L 0.0664062 275 Z M 0.0664062 0 " clip-rule="nonzero"/></clipPath><clipPath id="c5d63571f5"><path d="M 287 239 L 324.691406 239 L 324.691406 276.753906 L 287 276.753906 Z M 287 239 " clip-rule="nonzero"/></clipPath></defs><path fill="#f8fbf8" d="M 308.824219 259.171875 C 311.632812 259.199219 313.9375 256.945312 313.964844 254.136719 C 313.964844 254.019531 313.964844 253.902344 313.964844 253.785156 C 313.964844 249.96875 311.660156 248.15625 306.949219 248.15625 L 299.324219 248.15625 L 299.324219 268.117188 L 302.199219 268.117188 L 302.199219 259.417969 L 305.71875 259.417969 L 305.796875 259.523438 L 311.273438 268.117188 L 314.339844 268.117188 L 308.449219 259.222656 L 308.839844 259.171875 Z M 305.511719 257.164062 L 302.183594 257.164062 L 302.183594 250.421875 L 306.40625 250.421875 C 308.578125 250.421875 311.066406 250.785156 311.066406 253.632812 C 311.066406 256.90625 308.554688 257.179688 305.5 257.179688 " fill-opacity="1" fill-rule="nonzero"/><g clip-path="url(#9cff9a391f)"><path fill="#f8fbf8" d="M 233.988281 234.148438 L 193.3125 234.148438 L 193.3125 170.445312 C 193.3125 155.257812 193.042969 135.699219 172.160156 135.699219 C 151.28125 135.699219 147.734375 152.257812 147.734375 169.34375 L 147.734375 234.148438 L 107.058594 234.148438 L 107.058594 103.140625 L 146.113281 103.140625 L 146.113281 121.042969 L 146.660156 121.042969 C 154.621094 107.425781 169.429688 99.296875 185.183594 99.878906 C 226.414062 99.878906 234.015625 127 234.015625 162.277344 L 234.015625 234.148438 Z M 61.140625 85.238281 C 48.105469 85.238281 37.527344 74.675781 37.527344 61.636719 C 37.527344 48.601562 48.09375 38.027344 61.128906 38.027344 C 74.164062 38.027344 84.742188 48.589844 84.742188 61.625 C 84.742188 74.660156 74.175781 85.238281 61.140625 85.238281 M 81.492188 234.148438 L 40.765625 234.148438 L 40.765625 103.140625 L 81.492188 103.140625 Z M 254.273438 0.238281 L 20.324219 0.238281 C 9.269531 0.121094 0.195312 8.976562 0.0664062 20.03125 L 0.0664062 254.953125 C 0.195312 266.019531 9.253906 274.875 20.324219 274.757812 L 254.273438 274.757812 C 265.355469 274.902344 274.457031 266.035156 274.609375 254.953125 L 274.609375 20.019531 C 274.457031 8.9375 265.355469 0.0820312 254.273438 0.226562 " fill-opacity="1" fill-rule="nonzero"/></g><g clip-path="url(#4d344b61f1)"><path fill="#f8fbf8" d="M 305.847656 239.261719 C 295.503906 239.367188 287.207031 247.820312 287.308594 258.164062 C 287.414062 268.507812 295.867188 276.804688 306.210938 276.699219 C 316.554688 276.597656 324.851562 268.144531 324.75 257.800781 C 324.644531 247.597656 316.410156 239.351562 306.210938 239.261719 L 305.847656 239.261719 M 305.847656 274.5625 C 296.785156 274.71875 289.316406 267.484375 289.160156 258.421875 C 289.007812 249.359375 296.242188 241.890625 305.304688 241.734375 C 314.367188 241.578125 321.835938 248.816406 321.992188 257.878906 L 321.992188 258.148438 C 322.183594 267.015625 315.144531 274.355469 306.273438 274.550781 L 305.847656 274.550781 " fill-opacity="1" fill-rule="nonzero"/></g><path fill="#f8fbf8" d="M 308.824219 259.171875 C 311.632812 259.199219 313.9375 256.945312 313.964844 254.136719 C 313.964844 254.019531 313.964844 253.902344 313.964844 253.785156 C 313.964844 249.96875 311.660156 248.15625 306.949219 248.15625 L 299.324219 248.15625 L 299.324219 268.117188 L 302.199219 268.117188 L 302.199219 259.417969 L 305.71875 259.417969 L 305.796875 259.523438 L 311.273438 268.117188 L 314.339844 268.117188 L 308.449219 259.222656 L 308.839844 259.171875 Z M 305.511719 257.164062 L 302.183594 257.164062 L 302.183594 250.421875 L 306.40625 250.421875 C 308.578125 250.421875 311.066406 250.785156 311.066406 253.632812 C 311.066406 256.90625 308.554688 257.179688 305.5 257.179688 " fill-opacity="1" fill-rule="nonzero"/><g clip-path="url(#a4081beeff)"><path fill="#f8fbf8" d="M 233.988281 234.148438 L 193.3125 234.148438 L 193.3125 170.445312 C 193.3125 155.257812 193.042969 135.699219 172.160156 135.699219 C 151.28125 135.699219 147.734375 152.257812 147.734375 169.34375 L 147.734375 234.148438 L 107.058594 234.148438 L 107.058594 103.140625 L 146.113281 103.140625 L 146.113281 121.042969 L 146.660156 121.042969 C 154.621094 107.425781 169.429688 99.296875 185.183594 99.878906 C 226.414062 99.878906 234.015625 127 234.015625 162.277344 L 234.015625 234.148438 Z M 61.140625 85.238281 C 48.105469 85.238281 37.527344 74.675781 37.527344 61.636719 C 37.527344 48.601562 48.09375 38.027344 61.128906 38.027344 C 74.164062 38.027344 84.742188 48.589844 84.742188 61.625 C 84.742188 74.660156 74.175781 85.238281 61.140625 85.238281 M 81.492188 234.148438 L 40.765625 234.148438 L 40.765625 103.140625 L 81.492188 103.140625 Z M 254.273438 0.238281 L 20.324219 0.238281 C 9.269531 0.121094 0.195312 8.976562 0.0664062 20.03125 L 0.0664062 254.953125 C 0.195312 266.019531 9.253906 274.875 20.324219 274.757812 L 254.273438 274.757812 C 265.355469 274.902344 274.457031 266.035156 274.609375 254.953125 L 274.609375 20.019531 C 274.457031 8.9375 265.355469 0.0820312 254.273438 0.226562 " fill-opacity="1" fill-rule="nonzero"/></g><g clip-path="url(#c5d63571f5)"><path fill="#f8fbf8" d="M 305.847656 239.261719 C 295.503906 239.367188 287.207031 247.820312 287.308594 258.164062 C 287.414062 268.507812 295.867188 276.804688 306.210938 276.699219 C 316.554688 276.597656 324.851562 268.144531 324.75 257.800781 C 324.644531 247.597656 316.410156 239.351562 306.210938 239.261719 L 305.847656 239.261719 M 305.847656 274.5625 C 296.785156 274.71875 289.316406 267.484375 289.160156 258.421875 C 289.007812 249.359375 296.242188 241.890625 305.304688 241.734375 C 314.367188 241.578125 321.835938 248.816406 321.992188 257.878906 L 321.992188 258.148438 C 322.183594 267.015625 315.144531 274.355469 306.273438 274.550781 L 305.847656 274.550781 " fill-opacity="1" fill-rule="nonzero"/></g></svg>